<?xml version="1.0" encoding="UTF-8" standalone="no"?>
<!-- Created with Inkscape (http://www.inkscape.org/) -->

<svg
   xmlns:dc="http://purl.org/dc/elements/1.1/"
   xmlns:cc="http://creativecommons.org/ns#"
   xmlns:rdf="http://www.w3.org/1999/02/22-rdf-syntax-ns#"
   xmlns:svg="http://www.w3.org/2000/svg"
   xmlns="http://www.w3.org/2000/svg"
   xmlns:sodipodi="http://sodipodi.sourceforge.net/DTD/sodipodi-0.dtd"
   xmlns:inkscape="http://www.inkscape.org/namespaces/inkscape"
   width="744.09448819"
   height="1052.3622047"
   id="svg2"
   version="1.1"
   inkscape:version="0.48.4 r9939"
   sodipodi:docname="New document 1">
  <defs
     id="defs4" />
  <sodipodi:namedview
     id="base"
     pagecolor="#ffffff"
     bordercolor="#666666"
     borderopacity="1.0"
     inkscape:pageopacity="0.0"
     inkscape:pageshadow="2"
     inkscape:zoom="0.7"
     inkscape:cx="554.21752"
     inkscape:cy="443.70795"
     inkscape:document-units="px"
     inkscape:current-layer="layer1"
     showgrid="true"
     showguides="true"
     inkscape:guide-bbox="true"
     inkscape:window-width="1920"
     inkscape:window-height="1028"
     inkscape:window-x="-8"
     inkscape:window-y="-8"
     inkscape:window-maximized="1">
    <inkscape:grid
       type="xygrid"
       id="grid3775" />
  </sodipodi:namedview>
  <metadata
     id="metadata7">
    <rdf:RDF>
      <cc:Work
         rdf:about="">
        <dc:format>image/svg+xml</dc:format>
        <dc:type
           rdf:resource="http://purl.org/dc/dcmitype/StillImage" />
        <dc:title></dc:title>
      </cc:Work>
    </rdf:RDF>
  </metadata>
  <g
     inkscape:label="Layer 1"
     inkscape:groupmode="layer"
     id="layer1">
    <g
       id="g4687"
       transform="translate(46,-32)">
      <rect
         y="102.43015"
         x="0.50506622"
         height="177.16536"
         width="177.16536"
         id="rect3755"
         style="fill:#000000;fill-opacity:1;stroke:none" />
      <rect
         y="120.1467"
         x="18.221603"
         height="141.73228"
         width="141.73228"
         id="rect3755-1"
         style="fill:#ffffff;fill-opacity:1;stroke:none" />
      <path
         transform="matrix(0.63776275,0,0,0.63776275,-52.443177,-65.591696)"
         d="m 172.73609,337.67926 c 0,9.20522 -7.4623,16.66752 -16.66752,16.66752 -9.20521,0 -16.66751,-7.4623 -16.66751,-16.66752 0,-9.20522 7.4623,-16.66752 16.66751,-16.66752 9.20522,0 16.66752,7.4623 16.66752,16.66752 z"
         sodipodi:ry="16.667517"
         sodipodi:rx="16.667517"
         sodipodi:cy="337.67926"
         sodipodi:cx="156.06857"
         id="path2985"
         style="fill:#000000;fill-opacity:1;stroke:none"
         sodipodi:type="arc" />
      <path
         transform="matrix(0.63776275,0,0,0.63776275,-10.446975,-65.743985)"
         d="m 172.73609,337.67926 c 0,9.20522 -7.4623,16.66752 -16.66752,16.66752 -9.20521,0 -16.66751,-7.4623 -16.66751,-16.66752 0,-9.20522 7.4623,-16.66752 16.66751,-16.66752 9.20522,0 16.66752,7.4623 16.66752,16.66752 z"
         sodipodi:ry="16.667517"
         sodipodi:rx="16.667517"
         sodipodi:cy="337.67926"
         sodipodi:cx="156.06857"
         id="path2985-7"
         style="fill:#000000;fill-opacity:1;stroke:none"
         sodipodi:type="arc" />
      <path
         transform="matrix(0.63776275,0,0,0.63776275,31.549224,-65.594253)"
         d="m 172.73609,337.67926 c 0,9.20522 -7.4623,16.66752 -16.66752,16.66752 -9.20521,0 -16.66751,-7.4623 -16.66751,-16.66752 0,-9.20522 7.4623,-16.66752 16.66751,-16.66752 9.20522,0 16.66752,7.4623 16.66752,16.66752 z"
         sodipodi:ry="16.667517"
         sodipodi:rx="16.667517"
         sodipodi:cy="337.67926"
         sodipodi:cx="156.06857"
         id="path2985-7-0"
         style="fill:#000000;fill-opacity:1;stroke:none"
         sodipodi:type="arc" />
      <rect
         ry="16.361374"
         y="181.00081"
         x="38.479679"
         height="59.645638"
         width="100.55682"
         id="rect3799-48-8-2"
         style="fill:#000000;fill-opacity:1;stroke:none" />
      <path
         sodipodi:type="arc"
         style="fill:#ffffff;fill-opacity:1;stroke:none"
         id="path2985-4"
         sodipodi:cx="156.06857"
         sodipodi:cy="337.67926"
         sodipodi:rx="16.667517"
         sodipodi:ry="16.667517"
         d="m 172.73609,337.67926 c 0,9.20522 -7.4623,16.66752 -16.66752,16.66752 -9.20521,0 -16.66751,-7.4623 -16.66751,-16.66752 0,-9.20522 7.4623,-16.66752 16.66751,-16.66752 9.20522,0 16.66752,7.4623 16.66752,16.66752 z"
         transform="matrix(0.63776275,0,0,0.63776275,-33.460986,0.72302895)" />
      <path
         sodipodi:type="arc"
         style="fill:#ffffff;fill-opacity:1;stroke:none"
         id="path2985-4-5"
         sodipodi:cx="156.06857"
         sodipodi:cy="337.67926"
         sodipodi:rx="16.667517"
         sodipodi:ry="16.667517"
         d="m 172.73609,337.67926 c 0,9.20522 -7.4623,16.66752 -16.66752,16.66752 -9.20521,0 -16.66751,-7.4623 -16.66751,-16.66752 0,-9.20522 7.4623,-16.66752 16.66751,-16.66752 9.20522,0 16.66752,7.4623 16.66752,16.66752 z"
         transform="matrix(0.63776275,0,0,0.63776275,12.046641,-9.8835741)" />
    </g>
    <g
       id="g4706"
       transform="translate(46,-32.13443)">
      <rect
         style="fill:#000000;fill-opacity:1;stroke:none"
         id="rect3755-17-3"
         width="177.16536"
         height="177.16536"
         x="456.68536"
         y="102.56458" />
      <rect
         style="fill:#ffffff;fill-opacity:1;stroke:none"
         id="rect3755-1-1-2"
         width="141.73228"
         height="141.73228"
         x="474.40192"
         y="120.28113" />
      <path
         transform="matrix(0.63776275,0,0,0.63776275,415.85897,-65.457268)"
         d="m 172.73609,337.67926 c 0,9.20522 -7.4623,16.66752 -16.66752,16.66752 -9.20521,0 -16.66751,-7.4623 -16.66751,-16.66752 0,-9.20522 7.4623,-16.66752 16.66751,-16.66752 9.20522,0 16.66752,7.4623 16.66752,16.66752 z"
         sodipodi:ry="16.667517"
         sodipodi:rx="16.667517"
         sodipodi:cy="337.67926"
         sodipodi:cx="156.06857"
         id="path2985-5-2"
         style="fill:#000000;fill-opacity:1;stroke:none"
         sodipodi:type="arc" />
      <path
         transform="matrix(0.63776275,0,0,0.63776275,475.60771,-65.459828)"
         d="m 172.73609,337.67926 c 0,9.20522 -7.4623,16.66752 -16.66752,16.66752 -9.20521,0 -16.66751,-7.4623 -16.66751,-16.66752 0,-9.20522 7.4623,-16.66752 16.66751,-16.66752 9.20522,0 16.66752,7.4623 16.66752,16.66752 z"
         sodipodi:ry="16.667517"
         sodipodi:rx="16.667517"
         sodipodi:cy="337.67926"
         sodipodi:cx="156.06857"
         id="path2985-7-0-7-1"
         style="fill:#000000;fill-opacity:1;stroke:none"
         sodipodi:type="arc" />
      <rect
         style="fill:#000000;fill-opacity:1;stroke:none"
         id="rect3799-48-8-2-6-6"
         width="42.519684"
         height="43.627998"
         x="494.65997"
         y="197.15286"
         ry="21.259842" />
      <path
         transform="matrix(0.63776275,0,0,0.63776275,416.3851,3.6076008)"
         d="m 172.73609,337.67926 c 0,9.20522 -7.4623,16.66752 -16.66752,16.66752 -9.20521,0 -16.66751,-7.4623 -16.66751,-16.66752 0,-9.20522 7.4623,-16.66752 16.66751,-16.66752 9.20522,0 16.66752,7.4623 16.66752,16.66752 z"
         sodipodi:ry="16.667517"
         sodipodi:rx="16.667517"
         sodipodi:cy="337.67926"
         sodipodi:cx="156.06857"
         id="path2985-4-5-4-5"
         style="fill:#ffffff;fill-opacity:1;stroke:none"
         sodipodi:type="arc" />
      <rect
         style="fill:#000000;fill-opacity:1;stroke:none"
         id="rect3799-48-8-2-6-6-4"
         width="42.519684"
         height="43.627998"
         x="558.39856"
         y="196.84828"
         ry="21.259842" />
      <path
         transform="matrix(0.63776275,0,0,0.63776275,480.12368,3.3030214)"
         d="m 172.73609,337.67926 c 0,9.20522 -7.4623,16.66752 -16.66752,16.66752 -9.20521,0 -16.66751,-7.4623 -16.66751,-16.66752 0,-9.20522 7.4623,-16.66752 16.66751,-16.66752 9.20522,0 16.66752,7.4623 16.66752,16.66752 z"
         sodipodi:ry="16.667517"
         sodipodi:rx="16.667517"
         sodipodi:cy="337.67926"
         sodipodi:cx="156.06857"
         id="path2985-4-5-4-5-3"
         style="fill:#ffffff;fill-opacity:1;stroke:none"
         sodipodi:type="arc" />
    </g>
    <g
       id="g4716"
       transform="translate(44.90107,-32)">
      <rect
         style="fill:#000000;fill-opacity:1;stroke:none"
         id="rect3755-17-3-2"
         width="177.16536"
         height="177.16536"
         x="1.6039962"
         y="329.13312" />
      <rect
         style="fill:#ffffff;fill-opacity:1;stroke:none"
         id="rect3755-1-1-2-3"
         width="141.73228"
         height="141.73228"
         x="19.320534"
         y="346.84967" />
      <path
         transform="matrix(0.63776275,0,0,0.63776275,-51.34423,161.11127)"
         d="m 172.73609,337.67926 c 0,9.20522 -7.4623,16.66752 -16.66752,16.66752 -9.20521,0 -16.66751,-7.4623 -16.66751,-16.66752 0,-9.20522 7.4623,-16.66752 16.66751,-16.66752 9.20522,0 16.66752,7.4623 16.66752,16.66752 z"
         sodipodi:ry="16.667517"
         sodipodi:rx="16.667517"
         sodipodi:cy="337.67926"
         sodipodi:cx="156.06857"
         id="path2985-5-2-3"
         style="fill:#000000;fill-opacity:1;stroke:none"
         sodipodi:type="arc" />
      <path
         transform="matrix(0.63776275,0,0,0.63776275,32.64817,161.11127)"
         d="m 172.73609,337.67926 c 0,9.20522 -7.4623,16.66752 -16.66752,16.66752 -9.20521,0 -16.66751,-7.4623 -16.66751,-16.66752 0,-9.20522 7.4623,-16.66752 16.66751,-16.66752 9.20522,0 16.66752,7.4623 16.66752,16.66752 z"
         sodipodi:ry="16.667517"
         sodipodi:rx="16.667517"
         sodipodi:cy="337.67926"
         sodipodi:cx="156.06857"
         id="path2985-7-0-7-1-4"
         style="fill:#000000;fill-opacity:1;stroke:none"
         sodipodi:type="arc" />
      <rect
         style="fill:#000000;fill-opacity:1;stroke:none"
         id="rect3799-48-8-2-6-6-1"
         width="42.519684"
         height="43.627998"
         x="39.578609"
         y="423.72137"
         ry="21.259842" />
      <path
         transform="matrix(0.63776275,0,0,0.63776275,-38.69627,230.17613)"
         d="m 172.73609,337.67926 c 0,9.20522 -7.4623,16.66752 -16.66752,16.66752 -9.20521,0 -16.66751,-7.4623 -16.66751,-16.66752 0,-9.20522 7.4623,-16.66752 16.66751,-16.66752 9.20522,0 16.66752,7.4623 16.66752,16.66752 z"
         sodipodi:ry="16.667517"
         sodipodi:rx="16.667517"
         sodipodi:cy="337.67926"
         sodipodi:cx="156.06857"
         id="path2985-4-5-4-5-38"
         style="fill:#ffffff;fill-opacity:1;stroke:none"
         sodipodi:type="arc" />
      <rect
         style="fill:#000000;fill-opacity:1;stroke:none"
         id="rect3799-48-8-2-6-6-4-4"
         width="42.519684"
         height="43.627998"
         x="103.31719"
         y="423.41681"
         ry="21.259842" />
      <path
         transform="matrix(0.63776275,0,0,0.63776275,25.04231,229.87155)"
         d="m 172.73609,337.67926 c 0,9.20522 -7.4623,16.66752 -16.66752,16.66752 -9.20521,0 -16.66751,-7.4623 -16.66751,-16.66752 0,-9.20522 7.4623,-16.66752 16.66751,-16.66752 9.20522,0 16.66752,7.4623 16.66752,16.66752 z"
         sodipodi:ry="16.667517"
         sodipodi:rx="16.667517"
         sodipodi:cy="337.67926"
         sodipodi:cx="156.06857"
         id="path2985-4-5-4-5-3-2"
         style="fill:#ffffff;fill-opacity:1;stroke:none"
         sodipodi:type="arc" />
      <path
         transform="matrix(0.63776275,0,0,0.63776275,-9.34803,161.11127)"
         d="m 172.73609,337.67926 c 0,9.20522 -7.4623,16.66752 -16.66752,16.66752 -9.20521,0 -16.66751,-7.4623 -16.66751,-16.66752 0,-9.20522 7.4623,-16.66752 16.66751,-16.66752 9.20522,0 16.66752,7.4623 16.66752,16.66752 z"
         sodipodi:ry="16.667517"
         sodipodi:rx="16.667517"
         sodipodi:cy="337.67926"
         sodipodi:cx="156.06857"
         id="path2985-5-2-3-7"
         style="fill:#000000;fill-opacity:1;stroke:none"
         sodipodi:type="arc" />
    </g>
    <g
       id="g4727"
       transform="translate(46,-31.79184)">
      <rect
         style="fill:#000000;fill-opacity:1;stroke:none"
         id="rect3755-17-3-2-9"
         width="177.16536"
         height="177.16536"
         x="225.44666"
         y="328.92496" />
      <rect
         style="fill:#ffffff;fill-opacity:1;stroke:none"
         id="rect3755-1-1-2-3-3"
         width="141.73228"
         height="141.73228"
         x="243.16319"
         y="346.64151" />
      <path
         transform="matrix(0.63776275,0,0,0.63776275,172.49843,160.90311)"
         d="m 172.73609,337.67926 c 0,9.20522 -7.4623,16.66752 -16.66752,16.66752 -9.20521,0 -16.66751,-7.4623 -16.66751,-16.66752 0,-9.20522 7.4623,-16.66752 16.66751,-16.66752 9.20522,0 16.66752,7.4623 16.66752,16.66752 z"
         sodipodi:ry="16.667517"
         sodipodi:rx="16.667517"
         sodipodi:cy="337.67926"
         sodipodi:cx="156.06857"
         id="path2985-5-2-3-1"
         style="fill:#000000;fill-opacity:1;stroke:none"
         sodipodi:type="arc" />
      <path
         transform="matrix(0.63776275,0,0,0.63776275,256.49083,160.90311)"
         d="m 172.73609,337.67926 c 0,9.20522 -7.4623,16.66752 -16.66752,16.66752 -9.20521,0 -16.66751,-7.4623 -16.66751,-16.66752 0,-9.20522 7.4623,-16.66752 16.66751,-16.66752 9.20522,0 16.66752,7.4623 16.66752,16.66752 z"
         sodipodi:ry="16.667517"
         sodipodi:rx="16.667517"
         sodipodi:cy="337.67926"
         sodipodi:cx="156.06857"
         id="path2985-7-0-7-1-4-9"
         style="fill:#000000;fill-opacity:1;stroke:none"
         sodipodi:type="arc" />
      <rect
         style="fill:#000000;fill-opacity:1;stroke:none"
         id="rect3799-48-8-2-6-6-4-4-2"
         width="42.519684"
         height="43.627998"
         x="292.81467"
         y="422.19849"
         ry="21.259842" />
      <path
         transform="matrix(0.63776275,0,0,0.63776275,214.53978,228.65324)"
         d="m 172.73609,337.67926 c 0,9.20522 -7.4623,16.66752 -16.66752,16.66752 -9.20521,0 -16.66751,-7.4623 -16.66751,-16.66752 0,-9.20522 7.4623,-16.66752 16.66751,-16.66752 9.20522,0 16.66752,7.4623 16.66752,16.66752 z"
         sodipodi:ry="16.667517"
         sodipodi:rx="16.667517"
         sodipodi:cy="337.67926"
         sodipodi:cx="156.06857"
         id="path2985-4-5-4-5-3-2-8"
         style="fill:#ffffff;fill-opacity:1;stroke:none"
         sodipodi:type="arc" />
      <path
         transform="matrix(0.63776275,0,0,0.63776275,214.49463,160.90311)"
         d="m 172.73609,337.67926 c 0,9.20522 -7.4623,16.66752 -16.66752,16.66752 -9.20521,0 -16.66751,-7.4623 -16.66751,-16.66752 0,-9.20522 7.4623,-16.66752 16.66751,-16.66752 9.20522,0 16.66752,7.4623 16.66752,16.66752 z"
         sodipodi:ry="16.667517"
         sodipodi:rx="16.667517"
         sodipodi:cy="337.67926"
         sodipodi:cx="156.06857"
         id="path2985-5-2-3-7-6"
         style="fill:#000000;fill-opacity:1;stroke:none"
         sodipodi:type="arc" />
    </g>
    <g
       id="g4736"
       transform="translate(40.061005,-34.512634)">
      <rect
         style="fill:#000000;fill-opacity:1;stroke:none"
         id="rect3755-17-3-2-9-2"
         width="177.16536"
         height="177.16536"
         x="462.62436"
         y="331.64575" />
      <rect
         style="fill:#ffffff;fill-opacity:1;stroke:none"
         id="rect3755-1-1-2-3-3-4"
         width="141.73228"
         height="141.73228"
         x="480.34088"
         y="349.3623" />
      <path
         transform="matrix(0.63776275,0,0,0.63776275,420.78781,162.61374)"
         d="m 172.73609,337.67926 c 0,9.20522 -7.4623,16.66752 -16.66752,16.66752 -9.20521,0 -16.66751,-7.4623 -16.66751,-16.66752 0,-9.20522 7.4623,-16.66752 16.66751,-16.66752 9.20522,0 16.66752,7.4623 16.66752,16.66752 z"
         sodipodi:ry="16.667517"
         sodipodi:rx="16.667517"
         sodipodi:cy="337.67926"
         sodipodi:cx="156.06857"
         id="path2985-5-2-3-1-8"
         style="fill:#000000;fill-opacity:1;stroke:none"
         sodipodi:type="arc" />
      <path
         transform="matrix(0.63776275,0,0,0.63776275,483.567,163.62389)"
         d="m 172.73609,337.67926 c 0,9.20522 -7.4623,16.66752 -16.66752,16.66752 -9.20521,0 -16.66751,-7.4623 -16.66751,-16.66752 0,-9.20522 7.4623,-16.66752 16.66751,-16.66752 9.20522,0 16.66752,7.4623 16.66752,16.66752 z"
         sodipodi:ry="16.667517"
         sodipodi:rx="16.667517"
         sodipodi:cy="337.67926"
         sodipodi:cx="156.06857"
         id="path2985-7-0-7-1-4-9-6"
         style="fill:#000000;fill-opacity:1;stroke:none"
         sodipodi:type="arc" />
      <rect
         style="fill:#000000;fill-opacity:1;stroke:none"
         id="rect3799-48-8-2-6-6-4-4-2-0"
         width="42.519684"
         height="43.627998"
         x="529.99237"
         y="424.91928"
         ry="21.259842" />
      <path
         transform="matrix(0.63776275,0,0,0.63776275,451.71748,231.37402)"
         d="m 172.73609,337.67926 c 0,9.20522 -7.4623,16.66752 -16.66752,16.66752 -9.20521,0 -16.66751,-7.4623 -16.66751,-16.66752 0,-9.20522 7.4623,-16.66752 16.66751,-16.66752 9.20522,0 16.66752,7.4623 16.66752,16.66752 z"
         sodipodi:ry="16.667517"
         sodipodi:rx="16.667517"
         sodipodi:cy="337.67926"
         sodipodi:cx="156.06857"
         id="path2985-4-5-4-5-3-2-8-9"
         style="fill:#ffffff;fill-opacity:1;stroke:none"
         sodipodi:type="arc" />
    </g>
    <g
       id="g4744"
       transform="translate(46.71429,-32)">
      <rect
         style="fill:#000000;fill-opacity:1;stroke:none"
         id="rect3755-6"
         width="177.16536"
         height="177.16536"
         x="-0.20922379"
         y="572.43011" />
      <rect
         style="fill:#ffffff;fill-opacity:1;stroke:none"
         id="rect3755-1-13"
         width="141.73228"
         height="141.73228"
         x="17.507313"
         y="590.14667" />
      <path
         sodipodi:type="arc"
         style="fill:#000000;fill-opacity:1;stroke:none"
         id="path2985-7-3"
         sodipodi:cx="156.06857"
         sodipodi:cy="337.67926"
         sodipodi:rx="16.667517"
         sodipodi:ry="16.667517"
         d="m 172.73609,337.67926 c 0,9.20522 -7.4623,16.66752 -16.66752,16.66752 -9.20521,0 -16.66751,-7.4623 -16.66751,-16.66752 0,-9.20522 7.4623,-16.66752 16.66751,-16.66752 9.20522,0 16.66752,7.4623 16.66752,16.66752 z"
         transform="matrix(0.63776275,0,0,0.63776275,-11.161259,404.25601)" />
      <rect
         style="fill:#000000;fill-opacity:1;stroke:none"
         id="rect3799-48-8-2-4"
         width="100.55682"
         height="59.645638"
         x="37.765404"
         y="651.00079"
         ry="16.361374" />
      <path
         transform="matrix(0.63776275,0,0,0.63776275,-34.17527,470.72302)"
         d="m 172.73609,337.67926 c 0,9.20522 -7.4623,16.66752 -16.66752,16.66752 -9.20521,0 -16.66751,-7.4623 -16.66751,-16.66752 0,-9.20522 7.4623,-16.66752 16.66751,-16.66752 9.20522,0 16.66752,7.4623 16.66752,16.66752 z"
         sodipodi:ry="16.667517"
         sodipodi:rx="16.667517"
         sodipodi:cy="337.67926"
         sodipodi:cx="156.06857"
         id="path2985-4-6"
         style="fill:#ffffff;fill-opacity:1;stroke:none"
         sodipodi:type="arc" />
      <path
         transform="matrix(0.63776275,0,0,0.63776275,11.33236,460.11642)"
         d="m 172.73609,337.67926 c 0,9.20522 -7.4623,16.66752 -16.66752,16.66752 -9.20521,0 -16.66751,-7.4623 -16.66751,-16.66752 0,-9.20522 7.4623,-16.66752 16.66751,-16.66752 9.20522,0 16.66752,7.4623 16.66752,16.66752 z"
         sodipodi:ry="16.667517"
         sodipodi:rx="16.667517"
         sodipodi:cy="337.67926"
         sodipodi:cx="156.06857"
         id="path2985-4-5-0"
         style="fill:#ffffff;fill-opacity:1;stroke:none"
         sodipodi:type="arc" />
    </g>
    <g
       id="g4752"
       transform="translate(43.071075,-31.530396)">
      <rect
         style="fill:#000000;fill-opacity:1;stroke:none"
         id="rect3755-17-3-2-6"
         width="177.16536"
         height="177.16536"
         x="228.37558"
         y="571.96051" />
      <rect
         style="fill:#ffffff;fill-opacity:1;stroke:none"
         id="rect3755-1-1-2-3-1"
         width="141.73228"
         height="141.73228"
         x="246.09212"
         y="589.67706" />
      <rect
         style="fill:#000000;fill-opacity:1;stroke:none"
         id="rect3799-48-8-2-6-6-1-6"
         width="42.519684"
         height="43.627998"
         x="266.35019"
         y="666.54877"
         ry="21.259842" />
      <path
         transform="matrix(0.63776275,0,0,0.63776275,188.07532,473.00353)"
         d="m 172.73609,337.67926 c 0,9.20522 -7.4623,16.66752 -16.66752,16.66752 -9.20521,0 -16.66751,-7.4623 -16.66751,-16.66752 0,-9.20522 7.4623,-16.66752 16.66751,-16.66752 9.20522,0 16.66752,7.4623 16.66752,16.66752 z"
         sodipodi:ry="16.667517"
         sodipodi:rx="16.667517"
         sodipodi:cy="337.67926"
         sodipodi:cx="156.06857"
         id="path2985-4-5-4-5-38-3"
         style="fill:#ffffff;fill-opacity:1;stroke:none"
         sodipodi:type="arc" />
      <rect
         style="fill:#000000;fill-opacity:1;stroke:none"
         id="rect3799-48-8-2-6-6-4-4-8"
         width="42.519684"
         height="43.627998"
         x="330.08878"
         y="666.2442"
         ry="21.259842" />
      <path
         transform="matrix(0.63776275,0,0,0.63776275,251.8139,472.69895)"
         d="m 172.73609,337.67926 c 0,9.20522 -7.4623,16.66752 -16.66752,16.66752 -9.20521,0 -16.66751,-7.4623 -16.66751,-16.66752 0,-9.20522 7.4623,-16.66752 16.66751,-16.66752 9.20522,0 16.66752,7.4623 16.66752,16.66752 z"
         sodipodi:ry="16.667517"
         sodipodi:rx="16.667517"
         sodipodi:cy="337.67926"
         sodipodi:cx="156.06857"
         id="path2985-4-5-4-5-3-2-82"
         style="fill:#ffffff;fill-opacity:1;stroke:none"
         sodipodi:type="arc" />
      <path
         transform="matrix(0.63776275,0,0,0.63776275,217.42356,403.93867)"
         d="m 172.73609,337.67926 c 0,9.20522 -7.4623,16.66752 -16.66752,16.66752 -9.20521,0 -16.66751,-7.4623 -16.66751,-16.66752 0,-9.20522 7.4623,-16.66752 16.66751,-16.66752 9.20522,0 16.66752,7.4623 16.66752,16.66752 z"
         sodipodi:ry="16.667517"
         sodipodi:rx="16.667517"
         sodipodi:cy="337.67926"
         sodipodi:cx="156.06857"
         id="path2985-5-2-3-7-9"
         style="fill:#000000;fill-opacity:1;stroke:none"
         sodipodi:type="arc" />
    </g>
    <g
       id="g4761"
       transform="translate(34.80719,-32.743591)">
      <rect
         style="fill:#000000;fill-opacity:1;stroke:none"
         id="rect3755-17-3-2-9-3"
         width="177.16536"
         height="177.16536"
         x="467.87817"
         y="573.17371" />
      <rect
         style="fill:#ffffff;fill-opacity:1;stroke:none"
         id="rect3755-1-1-2-3-3-5"
         width="141.73228"
         height="141.73228"
         x="485.5947"
         y="590.89026" />
      <rect
         style="fill:#000000;fill-opacity:1;stroke:none"
         id="rect3799-48-8-2-6-6-4-4-2-07"
         width="42.519684"
         height="43.627998"
         x="535.24615"
         y="666.44727"
         ry="21.259842" />
      <path
         transform="matrix(0.63776275,0,0,0.63776275,456.97129,472.902)"
         d="m 172.73609,337.67926 c 0,9.20522 -7.4623,16.66752 -16.66752,16.66752 -9.20521,0 -16.66751,-7.4623 -16.66751,-16.66752 0,-9.20522 7.4623,-16.66752 16.66751,-16.66752 9.20522,0 16.66752,7.4623 16.66752,16.66752 z"
         sodipodi:ry="16.667517"
         sodipodi:rx="16.667517"
         sodipodi:cy="337.67926"
         sodipodi:cx="156.06857"
         id="path2985-4-5-4-5-3-2-8-6"
         style="fill:#ffffff;fill-opacity:1;stroke:none"
         sodipodi:type="arc" />
      <path
         transform="matrix(0.63776275,0,0,0.63776275,456.92614,405.15187)"
         d="m 172.73609,337.67926 c 0,9.20522 -7.4623,16.66752 -16.66752,16.66752 -9.20521,0 -16.66751,-7.4623 -16.66751,-16.66752 0,-9.20522 7.4623,-16.66752 16.66751,-16.66752 9.20522,0 16.66752,7.4623 16.66752,16.66752 z"
         sodipodi:ry="16.667517"
         sodipodi:rx="16.667517"
         sodipodi:cy="337.67926"
         sodipodi:cx="156.06857"
         id="path2985-5-2-3-7-6-3"
         style="fill:#000000;fill-opacity:1;stroke:none"
         sodipodi:type="arc" />
    </g>
    <g
       id="g4768"
       transform="translate(47.6091,-32)">
      <rect
         style="fill:#000000;fill-opacity:1;stroke:none"
         id="rect3755-15"
         width="177.16536"
         height="177.16536"
         x="-1.1040338"
         y="801.15057" />
      <rect
         style="fill:#ffffff;fill-opacity:1;stroke:none"
         id="rect3755-1-4"
         width="141.73228"
         height="141.73228"
         x="16.612503"
         y="818.86713" />
      <path
         sodipodi:type="arc"
         style="fill:#000000;fill-opacity:1;stroke:none"
         id="path2985-0"
         sodipodi:cx="156.06857"
         sodipodi:cy="337.67926"
         sodipodi:rx="16.667517"
         sodipodi:ry="16.667517"
         d="m 172.73609,337.67926 c 0,9.20522 -7.4623,16.66752 -16.66752,16.66752 -9.20521,0 -16.66751,-7.4623 -16.66751,-16.66752 0,-9.20522 7.4623,-16.66752 16.66751,-16.66752 9.20522,0 16.66752,7.4623 16.66752,16.66752 z"
         transform="matrix(0.63776275,0,0,0.63776275,-54.052271,635.12872)" />
      <path
         sodipodi:type="arc"
         style="fill:#000000;fill-opacity:1;stroke:none"
         id="path2985-7-9"
         sodipodi:cx="156.06857"
         sodipodi:cy="337.67926"
         sodipodi:rx="16.667517"
         sodipodi:ry="16.667517"
         d="m 172.73609,337.67926 c 0,9.20522 -7.4623,16.66752 -16.66752,16.66752 -9.20521,0 -16.66751,-7.4623 -16.66751,-16.66752 0,-9.20522 7.4623,-16.66752 16.66751,-16.66752 9.20522,0 16.66752,7.4623 16.66752,16.66752 z"
         transform="matrix(0.63776275,0,0,0.63776275,-12.770355,625.69072)" />
      <path
         sodipodi:type="arc"
         style="fill:#000000;fill-opacity:1;stroke:none"
         id="path2985-7-0-73"
         sodipodi:cx="156.06857"
         sodipodi:cy="337.67926"
         sodipodi:rx="16.667517"
         sodipodi:ry="16.667517"
         d="m 172.73609,337.67926 c 0,9.20522 -7.4623,16.66752 -16.66752,16.66752 -9.20521,0 -16.66751,-7.4623 -16.66751,-16.66752 0,-9.20522 7.4623,-16.66752 16.66751,-16.66752 9.20522,0 16.66752,7.4623 16.66752,16.66752 z"
         transform="matrix(0.63776275,0,0,0.63776275,29.94013,635.12617)" />
      <path
         style="fill:#000000;fill-opacity:1;stroke:none"
         d="m 53.23196,883.72128 c 36.76804,-37.3591 51.76804,-12.3591 67.83407,0 7.18437,5.52671 16.36138,7.29717 16.36138,16.36137 l 0,26.92289 c 0,9.0642 -7.29718,16.36138 -16.36138,16.36138 l -67.83407,0 c -9.06421,0 -16.36138,-7.29718 -16.36138,-16.36138 l 0,-26.92289 c 0,-9.0642 10.00332,-9.90111 16.36138,-16.36137 z"
         id="rect3799-48-8-2-7"
         inkscape:connector-curvature="0"
         sodipodi:nodetypes="sssssssss" />
      <path
         transform="matrix(0.63776275,0,0,0.63776275,-37.21294,704.51487)"
         d="m 172.73609,337.67926 c 0,9.20522 -7.4623,16.66752 -16.66752,16.66752 -9.20521,0 -16.66751,-7.4623 -16.66751,-16.66752 0,-9.20522 7.4623,-16.66752 16.66751,-16.66752 9.20522,0 16.66752,7.4623 16.66752,16.66752 z"
         sodipodi:ry="16.667517"
         sodipodi:rx="16.667517"
         sodipodi:cy="337.67926"
         sodipodi:cx="156.06857"
         id="path2985-4-2"
         style="fill:#ffffff;fill-opacity:1;stroke:none"
         sodipodi:type="arc" />
      <path
         transform="matrix(0.63776275,0,0,0.63776275,16.86612,704.26541)"
         d="m 172.73609,337.67926 c 0,9.20522 -7.4623,16.66752 -16.66752,16.66752 -9.20521,0 -16.66751,-7.4623 -16.66751,-16.66752 0,-9.20522 7.4623,-16.66752 16.66751,-16.66752 9.20522,0 16.66752,7.4623 16.66752,16.66752 z"
         sodipodi:ry="16.667517"
         sodipodi:rx="16.667517"
         sodipodi:cy="337.67926"
         sodipodi:cx="156.06857"
         id="path2985-4-5-6"
         style="fill:#ffffff;fill-opacity:1;stroke:none"
         sodipodi:type="arc" />
      <path
         transform="matrix(0.63776275,0,0,0.63776275,-11.70531,673.55112)"
         d="m 172.73609,337.67926 c 0,9.20522 -7.4623,16.66752 -16.66752,16.66752 -9.20521,0 -16.66751,-7.4623 -16.66751,-16.66752 0,-9.20522 7.4623,-16.66752 16.66751,-16.66752 9.20522,0 16.66752,7.4623 16.66752,16.66752 z"
         sodipodi:ry="16.667517"
         sodipodi:rx="16.667517"
         sodipodi:cy="337.67926"
         sodipodi:cx="156.06857"
         id="path2985-4-5-6-0"
         style="fill:#ffffff;fill-opacity:1;stroke:none"
         sodipodi:type="arc" />
    </g>
    <g
       id="g4779"
       transform="translate(36.836395,-30.571411)">
      <rect
         style="fill:#000000;fill-opacity:1;stroke:none"
         id="rect3755-15-6"
         width="177.16536"
         height="177.16536"
         x="234.61026"
         y="799.72198" />
      <rect
         style="fill:#ffffff;fill-opacity:1;stroke:none"
         id="rect3755-1-4-5"
         width="141.73228"
         height="141.73228"
         x="252.3268"
         y="817.43854" />
      <path
         sodipodi:type="arc"
         style="fill:#000000;fill-opacity:1;stroke:none"
         id="path2985-0-5"
         sodipodi:cx="156.06857"
         sodipodi:cy="337.67926"
         sodipodi:rx="16.667517"
         sodipodi:ry="16.667517"
         d="m 172.73609,337.67926 c 0,9.20522 -7.4623,16.66752 -16.66752,16.66752 -9.20521,0 -16.66751,-7.4623 -16.66751,-16.66752 0,-9.20522 7.4623,-16.66752 16.66751,-16.66752 9.20522,0 16.66752,7.4623 16.66752,16.66752 z"
         transform="matrix(0.63776275,0,0,0.63776275,181.66202,633.70015)" />
      <path
         sodipodi:type="arc"
         style="fill:#000000;fill-opacity:1;stroke:none"
         id="path2985-7-0-73-1"
         sodipodi:cx="156.06857"
         sodipodi:cy="337.67926"
         sodipodi:rx="16.667517"
         sodipodi:ry="16.667517"
         d="m 172.73609,337.67926 c 0,9.20522 -7.4623,16.66752 -16.66752,16.66752 -9.20521,0 -16.66751,-7.4623 -16.66751,-16.66752 0,-9.20522 7.4623,-16.66752 16.66751,-16.66752 9.20522,0 16.66752,7.4623 16.66752,16.66752 z"
         transform="matrix(0.63776275,0,0,0.63776275,265.65442,633.6976)" />
      <path
         style="fill:#000000;fill-opacity:1;stroke:none"
         d="m 288.94625,882.29273 c 36.76804,-37.35912 51.76804,-12.35912 67.83407,0 7.18438,5.5267 16.36138,7.2971 16.36138,16.3613 l 0,26.9229 c 0,9.0642 -7.29717,16.3614 -16.36138,16.3614 l -67.83407,0 c -9.06421,0 -16.36138,-7.2972 -16.36138,-16.3614 l 0,-26.9229 c 0,-9.0642 10.00332,-9.9011 16.36138,-16.3613 z"
         id="rect3799-48-8-2-7-2"
         inkscape:connector-curvature="0"
         sodipodi:nodetypes="sssssssss" />
      <path
         transform="matrix(0.63776275,0,0,0.63776275,198.50135,703.0863)"
         d="m 172.73609,337.67926 c 0,9.20522 -7.4623,16.66752 -16.66752,16.66752 -9.20521,0 -16.66751,-7.4623 -16.66751,-16.66752 0,-9.20522 7.4623,-16.66752 16.66751,-16.66752 9.20522,0 16.66752,7.4623 16.66752,16.66752 z"
         sodipodi:ry="16.667517"
         sodipodi:rx="16.667517"
         sodipodi:cy="337.67926"
         sodipodi:cx="156.06857"
         id="path2985-4-2-0"
         style="fill:#ffffff;fill-opacity:1;stroke:none"
         sodipodi:type="arc" />
      <path
         transform="matrix(0.63776275,0,0,0.63776275,252.58041,702.83684)"
         d="m 172.73609,337.67926 c 0,9.20522 -7.4623,16.66752 -16.66752,16.66752 -9.20521,0 -16.66751,-7.4623 -16.66751,-16.66752 0,-9.20522 7.4623,-16.66752 16.66751,-16.66752 9.20522,0 16.66752,7.4623 16.66752,16.66752 z"
         sodipodi:ry="16.667517"
         sodipodi:rx="16.667517"
         sodipodi:cy="337.67926"
         sodipodi:cx="156.06857"
         id="path2985-4-5-6-01"
         style="fill:#ffffff;fill-opacity:1;stroke:none"
         sodipodi:type="arc" />
      <path
         transform="matrix(0.63776275,0,0,0.63776275,224.00898,672.12255)"
         d="m 172.73609,337.67926 c 0,9.20522 -7.4623,16.66752 -16.66752,16.66752 -9.20521,0 -16.66751,-7.4623 -16.66751,-16.66752 0,-9.20522 7.4623,-16.66752 16.66751,-16.66752 9.20522,0 16.66752,7.4623 16.66752,16.66752 z"
         sodipodi:ry="16.667517"
         sodipodi:rx="16.667517"
         sodipodi:cy="337.67926"
         sodipodi:cx="156.06857"
         id="path2985-4-5-6-0-4"
         style="fill:#ffffff;fill-opacity:1;stroke:none"
         sodipodi:type="arc" />
    </g>
    <g
       id="g4789"
       transform="translate(29.503693,-26.285706)">
      <rect
         style="fill:#000000;fill-opacity:1;stroke:none"
         id="rect3755-15-0"
         width="177.16536"
         height="177.16536"
         x="473.18167"
         y="795.43628" />
      <rect
         style="fill:#ffffff;fill-opacity:1;stroke:none"
         id="rect3755-1-4-7"
         width="141.73228"
         height="141.73228"
         x="490.89822"
         y="813.15283" />
      <path
         sodipodi:type="arc"
         style="fill:#000000;fill-opacity:1;stroke:none"
         id="path2985-7-9-7"
         sodipodi:cx="156.06857"
         sodipodi:cy="337.67926"
         sodipodi:rx="16.667517"
         sodipodi:ry="16.667517"
         d="m 172.73609,337.67926 c 0,9.20522 -7.4623,16.66752 -16.66752,16.66752 -9.20521,0 -16.66751,-7.4623 -16.66751,-16.66752 0,-9.20522 7.4623,-16.66752 16.66751,-16.66752 9.20522,0 16.66752,7.4623 16.66752,16.66752 z"
         transform="matrix(0.63776275,0,0,0.63776275,461.51535,619.97643)" />
      <path
         style="fill:#000000;fill-opacity:1;stroke:none"
         d="m 527.51767,878.00699 c 36.76804,-37.3591 51.76804,-12.3591 67.83407,0 7.18438,5.52671 16.36138,7.29717 16.36138,16.36137 l 0,26.92288 c 0,9.0642 -7.29717,16.36138 -16.36138,16.36138 l -67.83407,0 c -9.06421,0 -16.36138,-7.29718 -16.36138,-16.36138 l 0,-26.92288 c 0,-9.0642 10.00332,-9.90111 16.36138,-16.36137 z"
         id="rect3799-48-8-2-7-7"
         inkscape:connector-curvature="0"
         sodipodi:nodetypes="sssssssss" />
      <path
         transform="matrix(0.63776275,0,0,0.63776275,437.07277,698.80058)"
         d="m 172.73609,337.67926 c 0,9.20522 -7.4623,16.66752 -16.66752,16.66752 -9.20521,0 -16.66751,-7.4623 -16.66751,-16.66752 0,-9.20522 7.4623,-16.66752 16.66751,-16.66752 9.20522,0 16.66752,7.4623 16.66752,16.66752 z"
         sodipodi:ry="16.667517"
         sodipodi:rx="16.667517"
         sodipodi:cy="337.67926"
         sodipodi:cx="156.06857"
         id="path2985-4-2-3"
         style="fill:#ffffff;fill-opacity:1;stroke:none"
         sodipodi:type="arc" />
      <path
         transform="matrix(0.63776275,0,0,0.63776275,491.15183,698.55112)"
         d="m 172.73609,337.67926 c 0,9.20522 -7.4623,16.66752 -16.66752,16.66752 -9.20521,0 -16.66751,-7.4623 -16.66751,-16.66752 0,-9.20522 7.4623,-16.66752 16.66751,-16.66752 9.20522,0 16.66752,7.4623 16.66752,16.66752 z"
         sodipodi:ry="16.667517"
         sodipodi:rx="16.667517"
         sodipodi:cy="337.67926"
         sodipodi:cx="156.06857"
         id="path2985-4-5-6-3"
         style="fill:#ffffff;fill-opacity:1;stroke:none"
         sodipodi:type="arc" />
      <path
         transform="matrix(0.63776275,0,0,0.63776275,462.5804,667.83683)"
         d="m 172.73609,337.67926 c 0,9.20522 -7.4623,16.66752 -16.66752,16.66752 -9.20521,0 -16.66751,-7.4623 -16.66751,-16.66752 0,-9.20522 7.4623,-16.66752 16.66751,-16.66752 9.20522,0 16.66752,7.4623 16.66752,16.66752 z"
         sodipodi:ry="16.667517"
         sodipodi:rx="16.667517"
         sodipodi:cy="337.67926"
         sodipodi:cx="156.06857"
         id="path2985-4-5-6-0-5"
         style="fill:#ffffff;fill-opacity:1;stroke:none"
         sodipodi:type="arc" />
    </g>
    <g
       id="g4697"
       transform="translate(45.675018,-32.59639)">
      <rect
         y="103.02654"
         x="225.77164"
         height="177.16536"
         width="177.16536"
         id="rect3755-17"
         style="fill:#000000;fill-opacity:1;stroke:none" />
      <rect
         y="120.7431"
         x="243.48817"
         height="141.73228"
         width="141.73228"
         id="rect3755-1-1"
         style="fill:#ffffff;fill-opacity:1;stroke:none" />
      <path
         transform="matrix(0.63776275,0,0,0.63776275,185.95538,-64.995298)"
         d="m 172.73609,337.67926 c 0,9.20522 -7.4623,16.66752 -16.66752,16.66752 -9.20521,0 -16.66751,-7.4623 -16.66751,-16.66752 0,-9.20522 7.4623,-16.66752 16.66751,-16.66752 9.20522,0 16.66752,7.4623 16.66752,16.66752 z"
         sodipodi:ry="16.667517"
         sodipodi:rx="16.667517"
         sodipodi:cy="337.67926"
         sodipodi:cx="156.06857"
         id="path2985-5"
         style="fill:#000000;fill-opacity:1;stroke:none"
         sodipodi:type="arc" />
      <path
         transform="matrix(0.63776275,0,0,0.63776275,243.68382,-64.997855)"
         d="m 172.73609,337.67926 c 0,9.20522 -7.4623,16.66752 -16.66752,16.66752 -9.20521,0 -16.66751,-7.4623 -16.66751,-16.66752 0,-9.20522 7.4623,-16.66752 16.66751,-16.66752 9.20522,0 16.66752,7.4623 16.66752,16.66752 z"
         sodipodi:ry="16.667517"
         sodipodi:rx="16.667517"
         sodipodi:cy="337.67926"
         sodipodi:cx="156.06857"
         id="path2985-7-0-7"
         style="fill:#000000;fill-opacity:1;stroke:none"
         sodipodi:type="arc" />
      <rect
         ry="16.361374"
         y="181.5972"
         x="263.74625"
         height="59.645638"
         width="100.55682"
         id="rect3799-48-8-2-6"
         style="fill:#000000;fill-opacity:1;stroke:none" />
      <path
         sodipodi:type="arc"
         style="fill:#ffffff;fill-opacity:1;stroke:none"
         id="path2985-4-1"
         sodipodi:cx="156.06857"
         sodipodi:cy="337.67926"
         sodipodi:rx="16.667517"
         sodipodi:ry="16.667517"
         d="m 172.73609,337.67926 c 0,9.20522 -7.4623,16.66752 -16.66752,16.66752 -9.20521,0 -16.66751,-7.4623 -16.66751,-16.66752 0,-9.20522 7.4623,-16.66752 16.66751,-16.66752 9.20522,0 16.66752,7.4623 16.66752,16.66752 z"
         transform="matrix(0.63776275,0,0,0.63776275,191.80559,1.3194176)" />
      <path
         sodipodi:type="arc"
         style="fill:#ffffff;fill-opacity:1;stroke:none"
         id="path2985-4-5-4"
         sodipodi:cx="156.06857"
         sodipodi:cy="337.67926"
         sodipodi:rx="16.667517"
         sodipodi:ry="16.667517"
         d="m 172.73609,337.67926 c 0,9.20522 -7.4623,16.66752 -16.66752,16.66752 -9.20521,0 -16.66751,-7.4623 -16.66751,-16.66752 0,-9.20522 7.4623,-16.66752 16.66751,-16.66752 9.20522,0 16.66752,7.4623 16.66752,16.66752 z"
         transform="matrix(0.63776275,0,0,0.63776275,237.31321,-9.2871824)" />
    </g>
  </g>
</svg>
